/* XPM */
static const char *jcc_sym_type_script_interface[] = {
/* columns rows colors chars-per-pixel */
"15 15 2 1 ",
"  c None",
". c black",
/* pixels */
"               ",
"   .. ... ..   ",
"  .         .  ",
" .  ..   .   . ",
" .  .   . .  . ",
"    ..  .      ",
" .  .   . .  . ",
" .  ..   .   . ",
" .           . ",
"    ...  .     ",
" .  ... ...  . ",
" .  . . . .  . ",
"  .         .  ",
"   .. ... ..   ",
"               "
};
